<svg version="1.1" viewBox="0.0 0.0 960.0 720.0" fill="none" stroke="none" stroke-linecap="square" stroke-miterlimit="10" xmlns:xlink="http://www.w3.org/1999/xlink" xmlns="http://www.w3.org/2000/svg"><clipPath id="p.0"><path d="m0 0l960.0 0l0 720.0l-960.0 0l0 -720.0z" clip-rule="nonzero"/></clipPath><g clip-path="url(#p.0)"><path fill="#000000" fill-opacity="0.0" d="m0 0l960.0 0l0 720.0l-960.0 0z" fill-rule="evenodd"/><path fill="#000000" fill-opacity="0.0" d="m315.8479 696.0l0 -125.03937" fill-rule="evenodd"/><path stroke="#000000" stroke-width="1.0" stroke-linejoin="round" stroke-linecap="butt" d="m315.8479 696.0l0 -125.03937" fill-rule="evenodd"/><path fill="#000000" fill-opacity="0.0" d="m407.04593 696.0l0 -125.03937" fill-rule="evenodd"/><path stroke="#000000" stroke-width="1.0" stroke-linejoin="round" stroke-linecap="butt" d="m407.04593 696.0l0 -125.03937" fill-rule="evenodd"/><path fill="#000000" fill-opacity="0.0" d="m315.8479 570.981l-54.677155 0" fill-rule="evenodd"/><path stroke="#000000" stroke-width="1.0" stroke-linejoin="round" stroke-linecap="butt" d="m315.8479 570.981l-54.677155 0" fill-rule="evenodd"/><path fill="#000000" fill-opacity="0.0" d="m607.6816 492.84418l-437.7323 0" fill-rule="evenodd"/><path stroke="#000000" stroke-width="1.0" stroke-linejoin="round" stroke-linecap="butt" d="m607.6816 492.84418l-437.7323 0" fill-rule="evenodd"/><path fill="#000000" fill-opacity="0.0" d="m224.64989 570.981l-54.677155 0" fill-rule="evenodd"/><path stroke="#000000" stroke-width="1.0" stroke-linejoin="round" stroke-linecap="butt" d="m224.64989 570.981l-54.677155 0" fill-rule="evenodd"/><path fill="#000000" fill-opacity="0.0" d="m169.93108 696.0l0 -125.03937" fill-rule="evenodd"/><path stroke="#000000" stroke-width="1.0" stroke-linejoin="round" stroke-linecap="butt" d="m169.93108 696.0l0 -125.03937" fill-rule="evenodd"/><path fill="#000000" fill-opacity="0.0" d="m315.8479 696.0l-291.8425 0" fill-rule="evenodd"/><path stroke="#000000" stroke-width="1.0" stroke-linejoin="round" stroke-linecap="butt" d="m315.8479 696.0l-291.8425 0" fill-rule="evenodd"/><path fill="#000000" fill-opacity="0.0" d="m24.014248 696.0l0 -437.5433" fill-rule="evenodd"/><path stroke="#000000" stroke-width="1.0" stroke-linejoin="round" stroke-linecap="butt" d="m24.014248 696.0l0 -437.5433" fill-rule="evenodd"/><path fill="#000000" fill-opacity="0.0" d="m242.8895 602.2358l-18.236221 -31.212585" fill-rule="evenodd"/><path stroke="#000000" stroke-width="1.0" stroke-linejoin="round" stroke-linecap="butt" d="m242.8895 602.2358l-18.236221 -31.212585" fill-rule="evenodd"/><path fill="#000000" fill-opacity="0.0" d="m169.93108 570.981l-54.677162 0" fill-rule="evenodd"/><path stroke="#000000" stroke-width="1.0" stroke-linejoin="round" stroke-linecap="butt" d="m169.93108 570.981l-54.677162 0" fill-rule="evenodd"/><path fill="#000000" fill-opacity="0.0" d="m78.73306 570.981l-54.67717 0" fill-rule="evenodd"/><path stroke="#000000" stroke-width="1.0" stroke-linejoin="round" stroke-linecap="butt" d="m78.73306 570.981l-54.67717 0" fill-rule="evenodd"/><path fill="#000000" fill-opacity="0.0" d="m96.972664 602.2358l-18.236221 -31.212585" fill-rule="evenodd"/><path stroke="#000000" stroke-width="1.0" stroke-linejoin="round" stroke-linecap="butt" d="m96.972664 602.2358l-18.236221 -31.212585" fill-rule="evenodd"/><path fill="#000000" fill-opacity="0.0" d="m169.93108 539.72626l0 -46.897614" fill-rule="evenodd"/><path stroke="#000000" stroke-width="1.0" stroke-linejoin="round" stroke-linecap="butt" d="m169.93108 539.72626l0 -46.897614" fill-rule="evenodd"/><path fill="#000000" fill-opacity="0.0" d="m133.45187 555.35364l36.503937 -15.622009" fill-rule="evenodd"/><path stroke="#000000" stroke-width="1.0" stroke-linejoin="round" stroke-linecap="butt" d="m133.45187 555.35364l36.503937 -15.622009" fill-rule="evenodd"/><path fill="#000000" fill-opacity="0.0" d="m315.8479 492.84418l0 -234.4252" fill-rule="evenodd"/><path stroke="#000000" stroke-width="1.0" stroke-linejoin="round" stroke-linecap="butt" d="m315.8479 492.84418l0 -234.4252" fill-rule="evenodd"/><path fill="#000000" fill-opacity="0.0" d="m352.32712 696.0l583.65356 0" fill-rule="evenodd"/><path stroke="#000000" stroke-width="1.0" stroke-linejoin="round" stroke-linecap="butt" d="m352.32712 696.0l583.65356 0" fill-rule="evenodd"/><path fill="#000000" fill-opacity="0.0" d="m334.08752 664.74524l18.236206 31.212646" fill-rule="evenodd"/><path stroke="#000000" stroke-width="1.0" stroke-linejoin="round" stroke-linecap="butt" d="m334.08752 664.74524l18.236206 31.212646" fill-rule="evenodd"/><path fill="#000000" fill-opacity="0.0" d="m935.99445 696.0l0 -672.0" fill-rule="evenodd"/><path stroke="#000000" stroke-width="1.0" stroke-linejoin="round" stroke-linecap="butt" d="m935.99445 696.0l0 -672.0" fill-rule="evenodd"/><path fill="#000000" fill-opacity="0.0" d="m607.6816 492.84418l0 -468.7874" fill-rule="evenodd"/><path stroke="#000000" stroke-width="1.0" stroke-linejoin="round" stroke-linecap="butt" d="m607.6816 492.84418l0 -468.7874" fill-rule="evenodd"/><path fill="#000000" fill-opacity="0.0" d="m844.79645 477.2168l-145.92126 0" fill-rule="evenodd"/><path stroke="#000000" stroke-width="1.0" stroke-linejoin="round" stroke-linecap="butt" d="m844.79645 477.2168l-145.92126 0" fill-rule="evenodd"/><path fill="#000000" fill-opacity="0.0" d="m935.99445 227.17886l-237.13385 0" fill-rule="evenodd"/><path stroke="#000000" stroke-width="1.0" stroke-linejoin="round" stroke-linecap="butt" d="m935.99445 227.17886l-237.13385 0" fill-rule="evenodd"/><path fill="#000000" fill-opacity="0.0" d="m935.99445 164.66937l-237.13385 0" fill-rule="evenodd"/><path stroke="#000000" stroke-width="1.0" stroke-linejoin="round" stroke-linecap="butt" d="m935.99445 164.66937l-237.13385 0" fill-rule="evenodd"/><path fill="#000000" fill-opacity="0.0" d="m935.99445 24.023031l-291.84253 0" fill-rule="evenodd"/><path stroke="#000000" stroke-width="1.0" stroke-linejoin="round" stroke-linecap="butt" d="m935.99445 24.023031l-291.84253 0" fill-rule="evenodd"/><path fill="#000000" fill-opacity="0.0" d="m625.9212 55.277775l-18.236267 -31.212599" fill-rule="evenodd"/><path stroke="#000000" stroke-width="1.0" stroke-linejoin="round" stroke-linecap="butt" d="m625.9212 55.277775l-18.236267 -31.212599" fill-rule="evenodd"/><path fill="#000000" fill-opacity="0.0" d="m771.838 70.90514l0 -46.897636" fill-rule="evenodd"/><path stroke="#000000" stroke-width="1.0" stroke-linejoin="round" stroke-linecap="butt" d="m771.838 70.90514l0 -46.897636" fill-rule="evenodd"/><path fill="#000000" fill-opacity="0.0" d="m735.3588 86.53252l36.503906 -15.622047" fill-rule="evenodd"/><path stroke="#000000" stroke-width="1.0" stroke-linejoin="round" stroke-linecap="butt" d="m735.3588 86.53252l36.503906 -15.622047" fill-rule="evenodd"/><path fill="#000000" fill-opacity="0.0" d="m771.838 164.66937l0 -46.897636" fill-rule="evenodd"/><path stroke="#000000" stroke-width="1.0" stroke-linejoin="round" stroke-linecap="butt" d="m771.838 164.66937l0 -46.897636" fill-rule="evenodd"/><path fill="#000000" fill-opacity="0.0" d="m717.1192 227.17886l0 -62.48819" fill-rule="evenodd"/><path stroke="#000000" stroke-width="1.0" stroke-linejoin="round" stroke-linecap="butt" d="m717.1192 227.17886l0 -62.48819" fill-rule="evenodd"/><path fill="#000000" fill-opacity="0.0" d="m735.3588 227.17886l0 -62.48819" fill-rule="evenodd"/><path stroke="#000000" stroke-width="1.0" stroke-linejoin="round" stroke-linecap="butt" d="m735.3588 227.17886l0 -62.48819" fill-rule="evenodd"/><path fill="#000000" fill-opacity="0.0" d="m753.5984 227.17886l0 -62.48819" fill-rule="evenodd"/><path stroke="#000000" stroke-width="1.0" stroke-linejoin="round" stroke-linecap="butt" d="m753.5984 227.17886l0 -62.48819" fill-rule="evenodd"/><path fill="#000000" fill-opacity="0.0" d="m771.838 227.17886l0 -62.48819" fill-rule="evenodd"/><path stroke="#000000" stroke-width="1.0" stroke-linejoin="round" stroke-linecap="butt" d="m771.838 227.17886l0 -62.48819" fill-rule="evenodd"/><path fill="#000000" fill-opacity="0.0" d="m790.07764 227.17886l0 -62.48819" fill-rule="evenodd"/><path stroke="#000000" stroke-width="1.0" stroke-linejoin="round" stroke-linecap="butt" d="m790.07764 227.17886l0 -62.48819" fill-rule="evenodd"/><path fill="#000000" fill-opacity="0.0" d="m808.3172 227.17886l0 -62.48819" fill-rule="evenodd"/><path stroke="#000000" stroke-width="1.0" stroke-linejoin="round" stroke-linecap="butt" d="m808.3172 227.17886l0 -62.48819" fill-rule="evenodd"/><path fill="#000000" fill-opacity="0.0" d="m826.5568 227.17886l0 -62.48819" fill-rule="evenodd"/><path stroke="#000000" stroke-width="1.0" stroke-linejoin="round" stroke-linecap="butt" d="m826.5568 227.17886l0 -62.48819" fill-rule="evenodd"/><path fill="#000000" fill-opacity="0.0" d="m844.79645 227.17886l0 -62.48819" fill-rule="evenodd"/><path stroke="#000000" stroke-width="1.0" stroke-linejoin="round" stroke-linecap="butt" d="m844.79645 227.17886l0 -62.48819" fill-rule="evenodd"/><path fill="#000000" fill-opacity="0.0" d="m863.036 227.17886l0 -62.48819" fill-rule="evenodd"/><path stroke="#000000" stroke-width="1.0" stroke-linejoin="round" stroke-linecap="butt" d="m863.036 227.17886l0 -62.48819" fill-rule="evenodd"/><path fill="#000000" fill-opacity="0.0" d="m881.27563 227.17886l0 -62.48819" fill-rule="evenodd"/><path stroke="#000000" stroke-width="1.0" stroke-linejoin="round" stroke-linecap="butt" d="m881.27563 227.17886l0 -62.48819" fill-rule="evenodd"/><path fill="#000000" fill-opacity="0.0" d="m899.51526 227.17886l0 -62.48819" fill-rule="evenodd"/><path stroke="#000000" stroke-width="1.0" stroke-linejoin="round" stroke-linecap="butt" d="m899.51526 227.17886l0 -62.48819" fill-rule="evenodd"/><path fill="#000000" fill-opacity="0.0" d="m917.7548 227.17886l0 -62.48819" fill-rule="evenodd"/><path stroke="#000000" stroke-width="1.0" stroke-linejoin="round" stroke-linecap="butt" d="m917.7548 227.17886l0 -62.48819" fill-rule="evenodd"/><path fill="#000000" fill-opacity="0.0" d="m315.8479 258.4336l-91.212585 0" fill-rule="evenodd"/><path stroke="#000000" stroke-width="1.0" stroke-linejoin="round" stroke-linecap="butt" d="m315.8479 258.4336l-91.212585 0" fill-rule="evenodd"/><path fill="#000000" fill-opacity="0.0" d="m115.212265 258.4336l-91.21259 0" fill-rule="evenodd"/><path stroke="#000000" stroke-width="1.0" stroke-linejoin="round" stroke-linecap="butt" d="m115.212265 258.4336l-91.21259 0" fill-rule="evenodd"/><path fill="#000000" fill-opacity="0.0" d="m158.79428 250.80016l-72.50394 0" fill-rule="evenodd"/><path stroke="#000000" stroke-width="1.0" stroke-linejoin="round" stroke-linecap="butt" d="m158.79428 250.80016l-72.50394 0" fill-rule="evenodd"/><path fill="#000000" fill-opacity="0.0" d="m251.36807 250.80016l-72.50394 0" fill-rule="evenodd"/><path stroke="#000000" stroke-width="1.0" stroke-linejoin="round" stroke-linecap="butt" d="m251.36807 250.80016l-72.50394 0" fill-rule="evenodd"/></g></svg>